<svg xmlns="http://www.w3.org/2000/svg" width="198.496" height="335.593" viewBox="0 0 198.496 335.593">
  <g id="Group_57" data-name="Group 57" transform="translate(0 0)">
    <path id="Fill_1" data-name="Fill 1" d="M68.036,106.407,28.025,26.879s-7.682-15.724-20.1-9.286S1.4,39.674,1.4,39.674L41.766,140.2s-8,12.825-5.264,20.1,31.755,46.913,44.1,48.3,54.942,16.293,96.492-7.655l-6.224-16.525s19.712-33.839,17.378-48.055-18.917-50.237-18.917-50.237l-4.057-64.889s1.709-19.513-14-21.144-14.689,19.116-14.689,19.116l.735,54.065Z" transform="translate(0 0)" fill="#e64437"/>
    <path id="Fill_3" data-name="Fill 3" d="M0,90.191C3.108,91.4,14.031,78.628,18.355,76.865c5.258-2.144,6.121-6.984,11.108-12.549,6.1-6.813,9.274-4.541,17.281-10.772,12.761-9.931,16.56-24.924,17.5-28.625A56.36,56.36,0,0,0,65.831,7.376,58.159,58.159,0,0,1,79.552,2.857C86.27,1.756,85.777.934,85.777.934A64.4,64.4,0,0,0,57.489,2.343L8.343,53.152Z" transform="translate(72.742 84.166)" fill="#092432"/>
    <path id="Fill_5" data-name="Fill 5" d="M37.889,3.149S7.681-7.418,1.993,10.161,3.724,66.87,12.489,68.1s22.732-1.767,19.9-17.3a156.442,156.442,0,0,1-2.671-27.239s3.962.242,6.166,2.564" transform="translate(64.294 73.052)" fill="#e64437"/>
    <path id="Fill_7" data-name="Fill 7" d="M39.025,3.713C32.564,1.941,25.849.771,19.235,1.222A22.092,22.092,0,0,0,9.886,3.7a12.27,12.27,0,0,0-5.77,7.156c-1.828,6.234-1.987,13-1.727,19.605A108.844,108.844,0,0,0,5.174,50.17a75.373,75.373,0,0,0,2.869,9.454,29.97,29.97,0,0,0,2.086,4.356,8.819,8.819,0,0,0,2.89,3.221,2.674,2.674,0,0,0,.8.275l1.192.138c.8.079,1.6.112,2.4.111a23.724,23.724,0,0,0,4.773-.474,14.181,14.181,0,0,0,8.078-4.337,12.157,12.157,0,0,0,2.688-8.687,45.135,45.135,0,0,0-.62-4.9c-.251-1.67-.485-3.342-.683-5.018a140.7,140.7,0,0,1-1.034-20.195l0-.266.248.031a9.992,9.992,0,0,1,6.151,2.8,9.986,9.986,0,0,0-6.18-2.326l.252-.234a170.7,170.7,0,0,0,2.029,19.984c.253,1.654.541,3.3.846,4.946a46.8,46.8,0,0,1,.812,5.074A14.163,14.163,0,0,1,31.93,64.31,16.234,16.234,0,0,1,22.666,69.5a25.984,25.984,0,0,1-5.235.581c-.877.011-1.755-.016-2.63-.091l-1.314-.138a5.156,5.156,0,0,1-1.583-.51,10.973,10.973,0,0,1-3.888-4.081,32.213,32.213,0,0,1-2.321-4.7A63.171,63.171,0,0,1,2.68,50.754a111.2,111.2,0,0,1-2.625-20.2c-.182-6.772-.02-13.693,2.226-20.321A14.07,14.07,0,0,1,9.121,2.3,22.776,22.776,0,0,1,19.178,0,56.808,56.808,0,0,1,39.025,3.713" transform="translate(63.157 72.489)" fill="#092432"/>
    <path id="Fill_9" data-name="Fill 9" d="M57.855,20.353s-6.416-3.008-28.152,1.4a172.1,172.1,0,0,0,2.685,29.179c2.832,15.538-11.135,18.533-19.9,17.305S-3.694,27.882,1.993,10.3,36.719,2.966,36.719,2.966" transform="translate(100.528 64.753)" fill="#e64437"/>
    <path id="Fill_11" data-name="Fill 11" d="M58.952,20.825a23.969,23.969,0,0,0-7.013-.756,66.622,66.622,0,0,0-7.058.44c-4.692.508-9.325,1.445-13.94,2.415l.569-.688a172.1,172.1,0,0,0,1.62,20.078c.442,3.357,1.091,6.563,1.594,10a16.051,16.051,0,0,1-1.677,10.556,14.87,14.87,0,0,1-8.7,6.309,26.287,26.287,0,0,1-10.539.837,6.54,6.54,0,0,1-1.565-.366,6.793,6.793,0,0,1-1.361-.817,9.783,9.783,0,0,1-2-2.072A24.244,24.244,0,0,1,6.263,62.1a62.474,62.474,0,0,1-3.212-9.826A110.451,110.451,0,0,1,.123,32.023C-.2,25.218.03,18.291,1.922,11.6A14.768,14.768,0,0,1,7.909,3.017,20.153,20.153,0,0,1,17.831.045,52.053,52.053,0,0,1,37.816,3.438c-6.48-1.811-13.26-2.958-19.891-2.3a19.978,19.978,0,0,0-9.178,3.1,13.116,13.116,0,0,0-5.1,7.84C2.023,18.469,2.05,25.252,2.382,31.9A108.211,108.211,0,0,0,5.441,51.671a59.981,59.981,0,0,0,3.164,9.385A24.565,24.565,0,0,0,10.956,65.2c.946,1.218,1.918,2.253,3.164,2.289a23.831,23.831,0,0,0,9.528-.656,12.481,12.481,0,0,0,7.4-5.185c3.374-5.383.476-12.368.073-19.088a173.764,173.764,0,0,1-1.03-20.342l.006-.582.562-.106a116.733,116.733,0,0,1,14.153-1.82,67.187,67.187,0,0,1,7.138-.1,23.38,23.38,0,0,1,7,1.207" transform="translate(99.431 64.281)" fill="#092432"/>
    <path id="Fill_13" data-name="Fill 13" d="M0,43.631S42.369-14.328,59.2,3.357s.225,27.71-14.893,35.667c0,0-4.987,24.838-13.328,38.764" transform="translate(41.766 96.57)" fill="#e64437"/>
    <path id="Fill_15" data-name="Fill 15" d="M0,44.816A206.813,206.813,0,0,1,19.856,20.3,127.3,127.3,0,0,1,31.417,9.437,49.9,49.9,0,0,1,45.184,1.163a16.613,16.613,0,0,1,8.33-.99A12.274,12.274,0,0,1,60.838,4.5a28.934,28.934,0,0,1,4.751,6.667A16.014,16.014,0,0,1,67.441,19.4,15.322,15.322,0,0,1,64.3,27.232a30.457,30.457,0,0,1-5.841,5.721,89.714,89.714,0,0,1-13.689,8.131l.509-.681a198.757,198.757,0,0,1-5.658,19.872c-2.34,6.462-4.928,12.9-8.641,18.7a102.856,102.856,0,0,0,7.445-19.086c1.961-6.539,3.619-13.2,4.912-19.873l.087-.446.423-.236a108.287,108.287,0,0,0,13.2-8.2c3.959-3.113,7.586-7.121,7.919-11.907.211-4.77-2.664-9.278-6.019-13.019A9.739,9.739,0,0,0,53.1,2.593a14.267,14.267,0,0,0-7.14.808,48.332,48.332,0,0,0-13.189,7.747A125.477,125.477,0,0,0,21.026,21.453,287.976,287.976,0,0,0,0,44.816" transform="translate(41.766 95.384)" fill="#092432"/>
    <path id="Fill_17" data-name="Fill 17" d="M58.734,134.646h0a58.325,58.325,0,0,0,56.382-75.963L96.492,0,0,7.654S6.813,29.677,1.668,68.966c-4.522,34.52,22.254,65.208,57.066,65.68" transform="translate(80.604 200.942)" fill="#e64437"/>
    <path id="Fill_19" data-name="Fill 19" d="M.157,5.969a49.037,49.037,0,0,0,6.1-4.331L5.433,0C3.708,1.979,1.921,3.918,0,5.761Z" transform="translate(38.115 57.733)" fill="#092432"/>
    <path id="Fill_21" data-name="Fill 21" d="M0,4.678l.107.238A84.633,84.633,0,0,0,9.43,1.851L8.5,0C5.852,1.684,2.823,3,0,4.678" transform="translate(33.574 54.801)" fill="#092432"/>
    <path id="Fill_23" data-name="Fill 23" d="M.959,18.179C-1.458,11.093.843,1.854,6.2.245c4.659-1.4,9.448,3.637,10.094,4.334,5.984,6.457,8.32,19.251,4.083,23.533C15.938,32.595,4.242,27.806.959,18.179" transform="translate(6.81 25.633)" fill="#f0ca50"/>
    <path id="Fill_25" data-name="Fill 25" d="M.012,12.978C.282,6.438,5.077-.366,9.949.015c4.241.331,6.552,5.95,6.858,6.723,2.838,7.155.7,18.322-4.109,20.474C7.665,29.464-.355,21.864.012,12.978" transform="translate(140.258 4.563)" fill="#f0ca50"/>
    <path id="Fill_27" data-name="Fill 27" d="M.93,37.579c2.092,6.249,8.3,12.981,15.146,12.754,12.351-.409,25.653-23.431,20.229-39.9-.869-2.639-3.056-9.279-8.2-10.295C17.426-1.974-4.806,20.444.93,37.579" transform="translate(39.317 122.126)" fill="#f0ca50"/>
    <path id="Fill_29" data-name="Fill 29" d="M6.708,18.136A5.713,5.713,0,0,1,.134,13.307C-.357,9.11.487,5.352,2.9,3.119,4.777,1.375,7.586,1.078,13.205.486c5.7-.6,10.023-1.057,11.593,1.262,1.541,2.277-.371,6.043-.788,6.864-3.26,6.421-11.609,8.7-17.3,9.524" transform="translate(69.489 77.962)" fill="#f0ca50"/>
    <path id="Fill_31" data-name="Fill 31" d="M24.16,9.846c.851,2.547-1.571,6.553-5.55,8.789C13.334,21.6,8.5,23.108,5.459,22.3c-2.374-.634-2.993-2.969-4.231-7.639C-.028,9.919-.981,6.327,1.823,3.526,4.575.777,9.513.221,10.59.1,19.01-.85,22.625,5.247,24.16,9.846" transform="translate(21.873 68.514)" fill="#f0ca50"/>
    <path id="Fill_33" data-name="Fill 33" d="M21.358,10.334c.974,2.458-.789,5.986-4.073,7.72-4.356,2.3-8.457,3.275-11.192,2.244-2.136-.8-2.888-3.045-4.392-7.522C.175,8.232-.981,4.788,1.223,2.42,3.387.1,7.663.019,8.6,0,15.887-.129,19.6,5.9,21.358,10.334" transform="translate(35.019 100.008)" fill="#f0ca50"/>
    <path id="Fill_35" data-name="Fill 35" d="M23.514,14.876c-.154,2.681-3.887,5.5-8.411,6.108-6,.8-11.049.409-13.571-1.47-1.971-1.468-1.681-3.867-1.1-8.663C1.019,5.984,1.465,2.295,5.107.731,8.681-.8,13.475.509,14.52.795c8.173,2.238,9.272,9.24,8.994,14.081" transform="translate(139.812 50.659)" fill="#f0ca50"/>
    <path id="Fill_37" data-name="Fill 37" d="M6.562,18.157A5.668,5.668,0,0,1,.134,13.309C-.358,9.111.486,5.353,2.9,3.119,4.777,1.375,7.586,1.078,13.205.486c5.7-.6,10.022-1.057,11.592,1.262,1.542,2.277-.37,6.043-.787,6.864-3.288,6.476-11.752,8.741-17.448,9.545" transform="translate(105.61 68.86)" fill="#f0ca50"/>
    <path id="Fill_39" data-name="Fill 39" d="M3.29,72.118C-7.794,62.189,10.066,7.659,42.812.846c1.434-.3,17.3-3.412,23.178,4.559,9.072,12.3-8.611,46.963-36.028,61.315-5.909,3.094-20.637,10.8-26.672,5.4" transform="translate(110.821 120.543)" fill="#f0ca50"/>
    <path id="Fill_41" data-name="Fill 41" d="M2.112,0,3.228,2.3l1.056,17.12L.391,23.348S-1.225,8.389,2.112,0" transform="translate(60.212 94.559)" fill="#092432"/>
    <path id="Fill_43" data-name="Fill 43" d="M1.045,16.886a2.011,2.011,0,0,1,.194-3.621A44.877,44.877,0,0,0,9.023,9.131C16.626,4.07,18.1-.326,21.263.019,26.9.635,32.777,15.753,28.207,21.1,24.559,25.37,13.8,23.95,1.045,16.886" transform="translate(72.314 171.1)" fill="#f0ca50"/>
    <path id="Fill_45" data-name="Fill 45" d="M7.179,61.987h0a7.28,7.28,0,0,0,7.369-6.938C16.041,22.9,17.371,29.625,18.026,7.505A7.282,7.282,0,0,0,9.782.066L6.974.443A7.284,7.284,0,0,0,.718,8.531C2.525,23.6,3.8,25.132.062,53.759a7.284,7.284,0,0,0,7.117,8.228" transform="translate(86.038 222.334)" fill="#f0ca50"/>
    <path id="Fill_47" data-name="Fill 47" d="M0,1.246.023,1.5A48.012,48.012,0,0,0,5.178,1.35L5.093,0C3.415.461,1.721.886,0,1.246" transform="translate(164.131 84.388)" fill="#092432"/>
    <path id="Fill_49" data-name="Fill 49" d="M8.775,1.733c-1.522,1.712-3.087,3.4-4.761,5l.157.208a48.463,48.463,0,0,0,5.358-3.73L7.912,0A28.783,28.783,0,0,1,0,4.12l.058.254A29.707,29.707,0,0,0,5.051,3.35,24.391,24.391,0,0,0,8.775,1.733" transform="translate(47.429 81.174)" fill="#092432"/>
    <path id="Fill_51" data-name="Fill 51" d="M49.718,0C37.952,8.629,18.908,20.352,0,22.407c0,0,31.725,2.807,55.91-5.964Z" transform="translate(121.165 184.444)" fill="#092432"/>
    <path id="Fill_53" data-name="Fill 53" d="M6.8.782A67.54,67.54,0,0,0,0,0C.136.024.281.068.414.083c0,0,.557,1.822,1.232,5.305,1.706-.052,3.418-.319,5.113-.442,2.652-.184,5.3-.483,7.922-.877,2.625-.444,5.239-.862,7.822-1.528l-.055-.517c-2.631-.165-5.25-.3-7.858-.556Z" transform="translate(80.19 208.514)" fill="#092432"/>
    <path id="Fill_55" data-name="Fill 55" d="M0,0C2.813,5.544,5.222,11.24,7.439,16.953c2.234,5.716,4.207,11.475,6.006,17.235.9,2.881,1.7,5.763,2.523,8.643.722,2.876,1.54,5.756,2.145,8.62a157.213,157.213,0,0,1,3.038,17.013C19.417,62.689,17.888,57,16.19,51.3c-1.663-5.694-3.352-11.381-5.14-17.067C9.321,28.542,7.476,22.855,5.634,17.158Z" transform="translate(174.887 227.382)" fill="#092432"/>
  </g>
</svg>
