<svg width="23" height="24" viewBox="0 0 23 24" fill="none" xmlns="http://www.w3.org/2000/svg">
<path opacity="0.2" fill-rule="evenodd" clip-rule="evenodd" d="M11.2961 24C17.5348 24 20.7096 13.8 15.0615 9.6C9.41345 5.4 18.79 0 12.5513 0C6.31258 0 0 7.23532 0 13.2C0 19.1647 5.05745 24 11.2961 24Z" fill="#22A45D"/>
<path fill-rule="evenodd" clip-rule="evenodd" d="M4.66675 14C4.66675 18.6024 8.39771 22.3333 13.0001 22.3333C17.6025 22.3333 21.3334 18.6024 21.3334 14C21.3334 9.39762 17.6025 5.66666 13.0001 5.66666C8.39771 5.66666 4.66675 9.39762 4.66675 14ZM13.0441 8.9074H12.9658C12.7239 8.9074 12.5228 9.09365 12.5042 9.33486L12.1035 14.5444C12.0865 14.7658 12.2291 14.9682 12.4433 15.0266L16.7201 16.193C16.7504 16.2013 16.7817 16.2055 16.8131 16.2055C17.0084 16.2055 17.1668 16.0471 17.1668 15.8518V15.6576C17.1668 15.4914 17.0777 15.338 16.9335 15.2556L13.926 13.537L13.5047 9.3243C13.4811 9.08763 13.2819 8.9074 13.0441 8.9074Z" fill="#22A45D"/>
</svg>
