<svg width="34" height="34" viewBox="0 0 34 34" fill="none" xmlns="http://www.w3.org/2000/svg">
<path fill-rule="evenodd" clip-rule="evenodd" d="M11.5335 19.1174C11.534 19.1676 11.5344 19.2122 11.5344 19.2507C11.5344 19.4379 11.5334 19.6972 11.5325 19.9648C11.5314 20.2499 11.5303 20.5442 11.5303 20.7704H11.6805C11.965 20.7704 12.2193 20.5834 12.3179 20.3018L12.318 20.3018C13.1539 17.9138 14.3352 16.4635 15.8618 15.9509C16.9267 15.5933 18.0987 15.4828 19.7441 15.435V19.1285C19.7441 19.3092 19.8088 19.4833 19.9251 19.6159C20.1801 19.9065 20.61 19.924 20.8854 19.6548L26.7822 13.8904C26.7966 13.8763 26.8105 13.8615 26.8237 13.8461C27.0759 13.5527 27.055 13.0991 26.777 12.8329L20.8803 7.18605C20.7552 7.06632 20.5925 7 20.4237 7C20.0484 7 19.7441 7.32114 19.7441 7.71729V11.4335C17.1526 11.555 14.9856 11.8216 13.5377 13.3587C11.5001 15.5218 11.5252 18.2184 11.5335 19.1174ZM15.97 8.82869C15.97 8.30049 15.5643 7.8723 15.0639 7.8723H10.6242C8.62263 7.8723 7 9.58506 7 11.6978V23.1745C7 25.2872 8.62263 27 10.6242 27H21.497C23.4986 27 25.1212 25.2872 25.1212 23.1745V21.2617C25.1212 20.7335 24.7155 20.3053 24.2151 20.3053C23.7147 20.3053 23.3091 20.7335 23.3091 21.2617V23.1745C23.3091 24.2309 22.4978 25.0872 21.497 25.0872H10.6242C9.62343 25.0872 8.81212 24.2309 8.81212 23.1745V11.6978C8.81212 10.6414 9.62343 9.78507 10.6242 9.78507H15.0639C15.5643 9.78507 15.97 9.35689 15.97 8.82869Z" fill="white"/>
</svg>
